<?xml version="1.0" standalone="no"?>
<!DOCTYPE svg PUBLIC "-//W3C//DTD SVG 20010904//EN"
 "http://www.w3.org/TR/2001/REC-SVG-20010904/DTD/svg10.dtd">
<svg version="1.0" xmlns="http://www.w3.org/2000/svg"
 width="512.000000pt" height="512.000000pt" viewBox="0 0 512.000000 512.000000"
 preserveAspectRatio="xMidYMid meet">

<g transform="translate(0.000000,512.000000) scale(0.100000,-0.100000)"
fill="#000000" stroke="none">
<path d="M3919 4957 c-195 -66 -309 -238 -296 -445 4 -70 11 -96 40 -156 87
-175 274 -276 457 -247 276 44 445 329 349 587 -83 220 -328 337 -550 261z
m266 -145 c67 -32 117 -83 149 -151 30 -65 28 -178 -3 -243 -29 -61 -88 -120
-149 -149 -65 -31 -178 -33 -243 -3 -194 89 -241 341 -92 486 73 70 111 86
213 87 52 1 77 -5 125 -27z"/>
<path d="M2213 4693 c-25 -3 -89 -60 -317 -279 l-286 -275 -132 -45 c-73 -24
-139 -52 -145 -61 -9 -12 -13 -61 -13 -159 l0 -143 103 -90 c66 -59 110 -91
126 -91 33 0 143 30 159 43 8 6 34 50 58 99 l44 87 245 201 c135 110 250 200
255 200 5 0 34 -16 64 -35 59 -38 135 -71 206 -89 25 -7 45 -15 45 -18 0 -3
-169 -188 -375 -412 l-374 -405 -201 -566 -201 -566 -95 -52 c-143 -80 -258
-161 -373 -264 l-39 -35 50 -50 49 -49 79 65 c99 83 215 160 330 220 50 26 97
54 104 62 8 7 101 260 206 561 162 463 195 548 212 551 11 2 197 -22 414 -52
l394 -56 277 -277 c304 -304 314 -317 312 -424 -1 -64 -29 -131 -70 -170 -14
-13 -219 -148 -456 -299 -237 -151 -436 -282 -441 -291 -7 -12 -6 -73 4 -195
17 -215 17 -206 2 -211 -9 -3 -265 347 -311 427 -15 26 -15 30 8 64 30 44 48
51 126 47 89 -4 124 18 221 136 158 193 304 323 435 389 75 38 93 67 67 113
-12 21 -58 41 -273 119 -164 59 -267 91 -281 88 -20 -5 -250 -212 -590 -531
-107 -101 -136 -134 -164 -190 -37 -73 -68 -95 -133 -95 -72 -1 -113 -33 -367
-287 -257 -258 -378 -392 -476 -528 -80 -111 -104 -164 -180 -385 -36 -107
-71 -198 -78 -202 -20 -13 -64 -9 -77 7 -16 19 -43 690 -30 715 14 27 85 43
127 29 50 -16 126 -7 167 22 23 16 54 58 92 124 31 55 82 136 112 179 l55 80
-39 33 c-68 59 -64 60 -129 -33 -33 -46 -81 -123 -106 -170 -62 -114 -70 -121
-112 -106 -118 43 -279 -24 -307 -126 -12 -48 14 -735 30 -778 15 -39 68 -93
107 -110 72 -31 174 -6 225 54 28 34 29 37 114 277 67 192 94 244 182 357 159
202 638 693 687 703 11 2 46 9 78 15 80 16 131 58 179 146 35 65 67 98 354
364 l316 292 146 -52 c81 -29 148 -53 149 -54 2 -2 -18 -18 -45 -37 -70 -50
-266 -243 -340 -334 -35 -44 -71 -83 -80 -86 -9 -3 -35 -2 -58 3 -61 13 -117
-5 -171 -55 -49 -44 -93 -124 -93 -168 0 -52 26 -98 187 -332 164 -237 183
-257 249 -271 67 -15 156 48 169 117 3 18 -1 104 -9 192 -8 88 -13 163 -10
166 2 4 187 123 412 266 224 142 426 277 450 301 24 24 58 73 75 110 29 61 32
76 32 162 0 87 -3 101 -33 165 -30 62 -60 97 -292 330 l-260 260 242 175 c133
96 244 173 247 171 3 -3 43 -52 89 -110 45 -58 99 -118 119 -134 42 -31 120
-57 173 -57 93 0 122 18 468 295 l331 264 143 47 c79 25 152 54 163 65 44 43
4 181 -75 257 -69 68 -120 87 -230 87 -83 0 -101 -3 -145 -27 -27 -14 -66 -42
-86 -62 -20 -20 -137 -101 -261 -180 l-226 -143 -31 82 c-58 152 -219 382
-366 524 -196 188 -469 321 -775 376 -92 17 -434 29 -507 18z m511 -163 c380
-75 644 -240 854 -532 121 -170 191 -316 192 -401 0 -45 36 -87 73 -87 20 0
138 72 560 343 31 20 57 41 57 47 0 6 21 24 47 40 84 53 204 37 259 -35 13
-17 24 -36 24 -41 0 -5 -54 -26 -120 -47 l-120 -37 -329 -264 c-181 -145 -339
-267 -352 -271 -36 -12 -96 -7 -130 10 -16 9 -60 55 -97 102 -145 187 -160
203 -194 203 -28 0 -229 -136 -609 -412 -25 -19 -30 -19 -389 32 -201 28 -366
53 -368 55 -2 2 151 171 339 377 189 205 360 392 381 415 72 80 46 129 -74
144 -139 17 -212 46 -335 132 -54 38 -77 48 -95 44 -13 -4 -152 -111 -309
-239 l-284 -233 -44 -87 c-54 -107 -66 -110 -147 -41 l-54 47 0 76 0 75 111
34 111 35 171 165 c95 90 223 214 284 274 l113 110 182 -6 c130 -3 215 -11
292 -27z"/>
</g>
</svg>
