<?xml version="1.0" standalone="no"?>
<!DOCTYPE svg PUBLIC "-//W3C//DTD SVG 20010904//EN"
 "http://www.w3.org/TR/2001/REC-SVG-20010904/DTD/svg10.dtd">
<svg version="1.0" xmlns="http://www.w3.org/2000/svg"
 width="512.000000pt" height="512.000000pt" viewBox="0 0 512.000000 512.000000"
 preserveAspectRatio="xMidYMid meet">

<g transform="translate(0.000000,512.000000) scale(0.100000,-0.100000)"
fill="#000000" stroke="none">
<path d="M3670 4473 c-8 -3 -278 -193 -599 -421 -575 -408 -584 -414 -622
-408 -22 3 -140 42 -264 86 -360 128 -528 172 -781 205 -238 31 -596 29 -775
-5 -136 -26 -237 -121 -257 -243 l-7 -42 -95 -5 c-76 -4 -104 -10 -140 -30
-52 -30 -105 -95 -120 -150 -7 -26 -9 -461 -8 -1342 l3 -1303 22 -41 c28 -52
95 -111 142 -124 55 -15 4732 -14 4782 2 51 15 114 69 142 122 l22 41 3 1304
c3 1437 6 1355 -59 1434 -49 60 -99 80 -209 87 l-95 5 -7 42 c-21 123 -123
218 -262 243 -74 14 -294 30 -401 30 l-93 0 -4 138 c-3 129 -5 141 -35 204
-34 73 -90 135 -145 161 -35 16 -107 22 -138 10z m98 -175 c11 -13 30 -43 41
-68 20 -44 21 -59 21 -1187 0 -668 -4 -1152 -9 -1166 -6 -14 -41 -44 -86 -72
-94 -58 -373 -268 -805 -604 l-325 -253 -3 1283 c-2 1018 1 1286 10 1296 27
25 1113 793 1123 793 7 0 21 -10 33 -22z m-2398 -518 c230 -30 446 -86 735
-192 105 -39 222 -78 260 -88 l70 -18 3 -1301 c2 -1038 0 -1301 -10 -1301 -7
0 -80 32 -163 71 -301 142 -511 215 -795 278 -237 53 -313 61 -578 61 -282 0
-307 5 -342 62 -20 33 -20 47 -20 1185 l0 1152 35 35 c39 39 85 52 235 66 117
11 455 5 570 -10z m2935 10 c167 -14 210 -26 251 -67 l34 -34 0 -1152 c0
-1138 0 -1152 -20 -1185 -35 -58 -60 -62 -344 -62 -229 0 -269 -3 -393 -25
-306 -56 -592 -139 -806 -235 -61 -27 -106 -46 -101 -41 60 54 828 637 884
671 96 58 152 114 168 166 9 31 12 272 12 1008 l0 966 98 0 c53 0 151 -5 217
-10z m-3933 -1387 l3 -1078 27 -46 c15 -25 44 -61 64 -79 72 -63 80 -64 404
-71 283 -5 301 -7 450 -38 354 -74 554 -135 751 -230 l124 -59 -990 -1 c-1048
0 -1008 -2 -1033 46 -9 16 -12 347 -12 1298 l0 1277 29 29 c27 27 35 29 105
29 l76 0 2 -1077z m4541 1066 c14 -6 30 -22 36 -36 16 -35 16 -2556 -1 -2586
-25 -48 15 -46 -1033 -46 l-990 1 125 59 c219 105 445 171 835 244 116 22 158
25 381 25 281 0 312 5 383 66 23 20 53 57 69 82 l27 47 3 1078 2 1077 70 0
c38 0 80 -5 93 -11z"/>
</g>
</svg>
